<?xml version="1.0" encoding="utf-8"?>
<!-- Generator: Adobe Illustrator 16.0.0, SVG Export Plug-In . SVG Version: 6.00 Build 0)  -->
<!DOCTYPE svg PUBLIC "-//W3C//DTD SVG 1.1//EN" "http://www.w3.org/Graphics/SVG/1.1/DTD/svg11.dtd">
<svg version="1.1" id="Calque_1" xmlns="http://www.w3.org/2000/svg" xmlns:xlink="http://www.w3.org/1999/xlink" x="0px" y="0px"
	 width="334px" height="108px" viewBox="0 0 334 108" enable-background="new 0 0 334 108" xml:space="preserve">
<g>
	<defs>
		<rect id="SVGID_1_" x="-81.725" y="-39.11" width="455.551" height="189.89"/>
	</defs>
	<clipPath id="SVGID_2_">
		<use xlink:href="#SVGID_1_"  overflow="visible"/>
	</clipPath>
	<path clip-path="url(#SVGID_2_)" fill="#3DA62A" d="M53.322,58.984h-9.064l-2.185,6.626h-4.841l9.101-25.846h4.915l9.101,25.846
		h-4.841L53.322,58.984z M48.772,44.242c0,0-0.583,2.548-1.093,4.004l-2.293,6.917h6.771l-2.293-6.917
		c-0.473-1.456-1.02-4.004-1.02-4.004H48.772z"/>
	<path clip-path="url(#SVGID_2_)" fill="#3DA62A" d="M62.932,47.044h4.222v1.348c0,0.691-0.072,1.273-0.072,1.273h0.072
		c0,0,1.602-3.058,5.97-3.058c5.024,0,8.227,3.968,8.227,9.72c0,5.897-3.604,9.72-8.482,9.72c-3.676,0-5.314-2.549-5.314-2.549
		h-0.073c0,0,0.073,0.656,0.073,1.603v7.789h-4.624V47.044z M72.033,62.152c2.548,0,4.66-2.075,4.66-5.752
		c0-3.531-1.893-5.824-4.624-5.824c-2.402,0-4.66,1.747-4.66,5.86C67.409,59.313,68.975,62.152,72.033,62.152"/>
	<path clip-path="url(#SVGID_2_)" fill="#3DA62A" d="M85.173,47.045h4.441v3.204c0,0.692-0.072,1.31-0.072,1.31h0.072
		c0.837-2.657,3.058-4.768,5.897-4.768c0.437,0,0.837,0.072,0.837,0.072v4.551c0,0-0.473-0.073-1.092-0.073
		c-1.965,0-4.187,1.128-5.06,3.895c-0.291,0.91-0.4,1.93-0.4,3.021v7.354h-4.623V47.045z"/>
	<path clip-path="url(#SVGID_2_)" fill="#3DA62A" d="M107.597,46.608c5.351,0,8.227,3.896,8.227,8.81c0,0.546-0.11,1.783-0.11,1.783
		H102.9c0.292,3.24,2.803,4.915,5.57,4.915c2.984,0,5.351-2.039,5.351-2.039l1.784,3.313c0,0-2.838,2.657-7.462,2.657
		c-6.151,0-9.974-4.44-9.974-9.719C98.168,50.612,102.063,46.608,107.597,46.608 M101.991,39.801h4.768l2.768,4.95h-3.75
		L101.991,39.801z M111.164,54.034c-0.073-2.512-1.638-3.859-3.677-3.859c-2.366,0-4.005,1.456-4.441,3.859H111.164z"/>
	<path clip-path="url(#SVGID_2_)" fill="#3DA62A" d="M120.191,60.077c0,0,2.039,2.039,5.06,2.039c1.311,0,2.439-0.582,2.439-1.675
		c0-2.767-9.029-2.403-9.029-8.373c0-3.458,3.095-5.46,7.099-5.46c4.187,0,6.225,2.111,6.225,2.111l-1.711,3.422
		c0,0-1.71-1.602-4.55-1.602c-1.201,0-2.366,0.509-2.366,1.675c0,2.621,9.028,2.293,9.028,8.263c0,3.094-2.693,5.569-7.099,5.569
		c-4.623,0-7.208-2.73-7.208-2.73L120.191,60.077z"/>
	<path clip-path="url(#SVGID_2_)" fill="#3DA62A" d="M145.671,39.765h8.81c7.973,0,13.179,4.732,13.179,12.886
		c0,8.155-5.206,12.959-13.179,12.959h-8.81V39.765z M154.226,61.569c5.243,0,8.593-3.094,8.593-8.918
		c0-5.752-3.423-8.846-8.593-8.846h-3.858v17.764H154.226z"/>
	<path clip-path="url(#SVGID_2_)" fill="#3DA62A" d="M179.962,46.608c5.352,0,8.228,3.896,8.228,8.81
		c0,0.546-0.109,1.783-0.109,1.783h-12.813c0.291,3.24,2.803,4.915,5.569,4.915c2.985,0,5.352-2.039,5.352-2.039l1.782,3.313
		c0,0-2.838,2.657-7.462,2.657c-6.151,0-9.974-4.44-9.974-9.719C170.534,50.612,174.429,46.608,179.962,46.608 M183.529,54.034
		c-0.072-2.512-1.638-3.859-3.677-3.859c-2.366,0-4.005,1.456-4.441,3.859H183.529z"/>
	<path clip-path="url(#SVGID_2_)" fill="#3DA62A" d="M192.01,47.045h4.441v2.147c0,0.692-0.072,1.275-0.072,1.275h0.072
		c0.911-1.82,3.132-3.859,6.044-3.859c2.839,0,4.658,1.311,5.424,3.822h0.073c1.019-2.002,3.421-3.822,6.333-3.822
		c3.859,0,6.079,2.184,6.079,7.062v11.94h-4.623V54.544c0-2.112-0.399-3.713-2.548-3.713c-2.366,0-3.931,1.893-4.478,4.223
		c-0.183,0.728-0.218,1.529-0.218,2.403v8.153h-4.624V54.544c0-2.002-0.328-3.713-2.512-3.713c-2.403,0-3.969,1.893-4.55,4.259
		c-0.183,0.691-0.22,1.528-0.22,2.367v8.153h-4.623V47.045z"/>
	<path clip-path="url(#SVGID_2_)" fill="#3DA62A" d="M234.673,53.961h0.619v-0.254c0-2.439-1.529-3.276-3.567-3.276
		c-2.658,0-5.096,1.784-5.096,1.784l-1.748-3.313c0,0,2.875-2.293,7.281-2.293c4.877,0,7.717,2.693,7.717,7.39V65.61h-4.26v-1.529
		c0-0.728,0.073-1.311,0.073-1.311h-0.073c0.036,0-1.42,3.276-5.642,3.276c-3.313,0-6.299-2.074-6.299-5.787
		C223.679,54.362,231.652,53.961,234.673,53.961 M231.142,62.443c2.44,0,4.187-2.62,4.187-4.878v-0.438h-0.8
		c-2.366,0-6.189,0.329-6.189,2.913C228.339,61.279,229.249,62.443,231.142,62.443"/>
	<path clip-path="url(#SVGID_2_)" fill="#3DA62A" d="M244.684,39.765h4.587v4.113h-4.587V39.765z M244.684,47.045h4.623V65.61
		h-4.623V47.045z"/>
	<path clip-path="url(#SVGID_2_)" fill="#3DA62A" d="M254.402,47.045h4.44v2.147c0,0.692-0.072,1.275-0.072,1.275h0.072
		c0.802-1.566,2.841-3.859,6.59-3.859c4.112,0,6.442,2.147,6.442,7.062v11.94h-4.586V54.617c0-2.256-0.582-3.786-2.948-3.786
		c-2.476,0-4.296,1.565-4.987,3.786c-0.255,0.765-0.328,1.602-0.328,2.475v8.519h-4.623V47.045z"/>
	<path clip-path="url(#SVGID_2_)" fill="#7FC473" d="M58.343,6.638C58.343,2.972,55.37,0,51.704,0s-6.638,2.972-6.638,6.638
		s2.972,6.638,6.638,6.638S58.343,10.304,58.343,6.638"/>
	<path clip-path="url(#SVGID_2_)" fill="#A2D499" d="M40.096,7.821c-0.925-2.538-3.732-3.848-6.271-2.923
		c-2.539,0.924-3.848,3.732-2.924,6.271c0.924,2.539,3.732,3.848,6.271,2.923C39.71,13.168,41.02,10.361,40.096,7.821"/>
	<path clip-path="url(#SVGID_2_)" fill="#BDE1B6" d="M23.821,15.563c-1.193-1.42-3.312-1.606-4.734-0.414
		c-1.421,1.194-1.607,3.313-0.415,4.735c1.194,1.421,3.313,1.606,4.735,0.413C24.828,19.105,25.014,16.985,23.821,15.563"/>
	<path clip-path="url(#SVGID_2_)" fill="#FFD600" d="M13.988,24.581c-3.174-1.833-7.234-0.745-9.067,2.43
		c-1.833,3.174-0.746,7.234,2.429,9.067c3.175,1.833,7.234,0.745,9.067-2.429C18.25,30.473,17.163,26.414,13.988,24.581"/>
	<path clip-path="url(#SVGID_2_)" fill="#FFDC26" d="M5.743,40.975c-2.662-0.469-5.199,1.307-5.668,3.969
		c-0.469,2.66,1.308,5.198,3.968,5.667c2.662,0.469,5.198-1.308,5.667-3.969C10.181,43.981,8.403,41.443,5.743,40.975"/>
	<path clip-path="url(#SVGID_2_)" fill="#FFE55E" d="M4.31,58.938c-1.828,0.323-3.048,2.066-2.726,3.894
		c0.322,1.828,2.065,3.048,3.892,2.726c1.829-0.321,3.048-2.065,2.727-3.894C7.88,59.838,6.137,58.617,4.31,58.938"/>
	<path clip-path="url(#SVGID_2_)" fill="#51AF40" d="M85.909,20.868c1.738-2.069,1.467-5.154-0.603-6.891
		c-2.069-1.737-5.155-1.467-6.891,0.602c-1.737,2.07-1.467,5.156,0.604,6.893C81.086,23.208,84.173,22.939,85.909,20.868"/>
	<path clip-path="url(#SVGID_2_)" fill="#64B855" d="M71.068,10.645c0.634-1.744-0.265-3.672-2.008-4.306
		c-1.744-0.635-3.672,0.263-4.307,2.009c-0.636,1.743,0.264,3.671,2.007,4.307C68.505,13.288,70.434,12.389,71.068,10.645"/>
	<path clip-path="url(#SVGID_2_)" fill="#7FC473" d="M45.021,101.362c0,3.666,2.973,6.638,6.639,6.638s6.638-2.972,6.638-6.638
		c0-3.667-2.972-6.639-6.638-6.639S45.021,97.695,45.021,101.362"/>
	<path clip-path="url(#SVGID_2_)" fill="#A2D499" d="M63.268,100.178c0.925,2.538,3.732,3.848,6.271,2.923
		c2.539-0.924,3.849-3.731,2.925-6.27c-0.925-2.538-3.733-3.848-6.271-2.924C63.654,94.832,62.343,97.639,63.268,100.178"/>
	<path clip-path="url(#SVGID_2_)" fill="#BDE1B6" d="M79.543,92.437c1.192,1.422,3.312,1.606,4.734,0.414
		c1.421-1.194,1.606-3.313,0.415-4.734c-1.194-1.422-3.313-1.606-4.735-0.414C78.535,88.896,78.35,91.015,79.543,92.437"/>
	<path clip-path="url(#SVGID_2_)" fill="#3DA62A" d="M7.35,71.964c-3.175,1.834-4.262,5.893-2.43,9.068
		c1.834,3.175,5.893,4.264,9.067,2.43c3.175-1.834,4.261-5.893,2.43-9.067C14.584,71.22,10.524,70.131,7.35,71.964"/>
	<path clip-path="url(#SVGID_2_)" fill="#51AF40" d="M17.499,87.175c-1.738,2.069-1.467,5.154,0.604,6.893
		c2.069,1.736,5.155,1.466,6.892-0.604c1.737-2.07,1.467-5.155-0.604-6.892C22.321,84.834,19.235,85.104,17.499,87.175"/>
	<path clip-path="url(#SVGID_2_)" fill="#64B855" d="M32.296,97.354c-0.635,1.744,0.264,3.671,2.008,4.307
		c1.744,0.636,3.672-0.264,4.307-2.009c0.634-1.743-0.264-3.671-2.008-4.307C34.859,94.711,32.93,95.61,32.296,97.354"/>
	<path clip-path="url(#SVGID_2_)" fill="#6D6D6C" d="M118.785,84.354l-0.57-1.519h-2.396l-0.559,1.519h-1.667l2.865-7.34h1.221
		l2.865,7.34H118.785z M117.255,80.038c-0.08-0.204-0.16-0.479-0.229-0.742h-0.022c-0.057,0.264-0.148,0.538-0.228,0.742
		l-0.525,1.461h1.529L117.255,80.038z"/>
	<path clip-path="url(#SVGID_2_)" fill="#6D6D6C" d="M127.025,84.524c-2.009,0-4.04-1.324-4.04-3.813
		c0-2.511,2.078-3.813,3.995-3.813c1.015,0,1.814,0.252,2.317,0.582l-0.137,1.553c-0.502-0.365-1.198-0.605-1.997-0.605
		c-1.325,0-2.42,0.892-2.42,2.328c0,1.37,1.039,2.261,2.363,2.261c0.422,0,0.741-0.069,0.992-0.217v-1.027h-1.324v-1.358h2.944
		v3.355C129.102,84.262,128.201,84.524,127.025,84.524"/>
	<rect x="133.291" y="77.071" clip-path="url(#SVGID_2_)" fill="#6D6D6C" width="1.769" height="7.281"/>
	<path clip-path="url(#SVGID_2_)" fill="#6D6D6C" d="M143.003,84.353l-1.964-2.865h-0.628v2.865h-1.7v-7.281h2.716
		c1.244,0,2.352,0.833,2.352,2.203c0,0.855-0.503,1.54-1.119,1.825l2.317,3.253H143.003z M141.166,78.464h-0.754v1.632h0.754
		c0.457,0,0.913-0.251,0.913-0.821C142.078,78.727,141.622,78.464,141.166,78.464"/>
	<path clip-path="url(#SVGID_2_)" fill="#6D6D6C" d="M158.182,78.886c-0.376-0.24-0.947-0.456-1.734-0.456
		c-1.324,0-2.385,0.901-2.385,2.281c0,1.37,1.061,2.272,2.441,2.272c0.788,0,1.393-0.171,1.792-0.434l-0.147,1.586
		c-0.411,0.239-1.028,0.389-1.907,0.389c-1.917,0-3.971-1.313-3.971-3.813c0-2.51,2.064-3.812,3.971-3.812
		c0.913,0,1.633,0.194,2.066,0.446L158.182,78.886z"/>
	<path clip-path="url(#SVGID_2_)" fill="#6D6D6C" d="M165.063,84.524c-2.009,0-3.915-1.473-3.915-3.824
		c0-2.328,1.906-3.801,3.915-3.801c2.021,0,3.927,1.473,3.927,3.801C168.99,83.052,167.084,84.524,165.063,84.524 M165.063,78.452
		c-1.096,0-2.123,0.891-2.123,2.248c0,1.37,1.027,2.26,2.123,2.26s2.135-0.89,2.135-2.26
		C167.198,79.343,166.159,78.452,165.063,78.452"/>
	<path clip-path="url(#SVGID_2_)" fill="#6D6D6C" d="M178.246,84.433l-2.831-3.104c-0.456-0.502-0.971-1.119-1.358-1.599
		l-0.022,0.013c0.022,0.513,0.034,1.072,0.034,1.529v3.081H172.3v-7.281h1.427l2.465,2.717c0.342,0.375,0.855,0.97,1.187,1.392
		l0.023-0.011c-0.023-0.434-0.034-0.902-0.034-1.358v-2.739h1.769v7.361H178.246z"/>
	<polygon clip-path="url(#SVGID_2_)" fill="#6D6D6C" points="186.12,78.485 186.12,84.353 184.362,84.353 184.362,78.475 
		182.16,78.475 182.16,77.071 188.312,77.071 188.312,78.485 	"/>
	<path clip-path="url(#SVGID_2_)" fill="#6D6D6C" d="M195.627,84.353l-1.963-2.865h-0.628v2.865h-1.7v-7.281h2.717
		c1.244,0,2.351,0.833,2.351,2.203c0,0.855-0.503,1.54-1.118,1.825l2.316,3.253H195.627z M193.79,78.464h-0.754v1.632h0.754
		c0.456,0,0.912-0.251,0.912-0.821C194.702,78.727,194.246,78.464,193.79,78.464"/>
	<polygon clip-path="url(#SVGID_2_)" fill="#6D6D6C" points="200.271,84.353 200.271,77.071 204.518,77.071 204.518,78.521 
		202.041,78.521 202.041,79.971 204.061,79.971 204.061,81.442 202.041,81.442 202.041,82.902 204.837,82.902 204.837,84.353 	"/>
	<polygon clip-path="url(#SVGID_2_)" fill="#6D6D6C" points="212.825,84.353 212.825,77.071 214.595,77.071 214.595,82.834 
		217.517,82.834 217.517,84.353 	"/>
	<polygon clip-path="url(#SVGID_2_)" fill="#6D6D6C" points="220.804,79.433 219.993,79.433 219.765,76.226 221.055,76.226 	"/>
	<rect x="224.49" y="77.071" clip-path="url(#SVGID_2_)" fill="#6D6D6C" width="1.769" height="7.281"/>
	<path clip-path="url(#SVGID_2_)" fill="#6D6D6C" d="M231.977,84.524c-0.902,0-1.678-0.229-2.202-0.617l-0.161-1.7
		c0.709,0.56,1.473,0.833,2.282,0.833c0.651,0,1.018-0.273,1.018-0.707s-0.252-0.65-1.154-0.971
		c-1.266-0.445-1.939-1.256-1.939-2.26c0-1.232,0.925-2.214,2.522-2.214c0.901,0,1.461,0.229,1.78,0.434l-0.137,1.484
		c-0.343-0.229-0.936-0.458-1.506-0.458c-0.629,0-0.926,0.274-0.926,0.629c0,0.343,0.252,0.559,1.118,0.844
		c1.165,0.388,2.021,1.198,2.021,2.34C234.692,83.588,233.769,84.524,231.977,84.524"/>
	<path clip-path="url(#SVGID_2_)" fill="#6D6D6C" d="M241.529,84.524c-2.009,0-3.915-1.473-3.915-3.824
		c0-2.328,1.906-3.801,3.915-3.801c2.021,0,3.927,1.473,3.927,3.801C245.456,83.052,243.55,84.524,241.529,84.524 M241.529,78.452
		c-1.096,0-2.123,0.891-2.123,2.248c0,1.37,1.027,2.26,2.123,2.26s2.135-0.89,2.135-2.26
		C243.664,79.343,242.625,78.452,241.529,78.452"/>
	<polygon clip-path="url(#SVGID_2_)" fill="#6D6D6C" points="248.765,84.353 248.765,77.071 250.534,77.071 250.534,82.834 
		253.456,82.834 253.456,84.353 	"/>
	<polygon clip-path="url(#SVGID_2_)" fill="#6D6D6C" points="256.469,84.353 256.469,77.071 260.715,77.071 260.715,78.521 
		258.237,78.521 258.237,79.971 260.258,79.971 260.258,81.442 258.237,81.442 258.237,82.902 261.034,82.902 261.034,84.353 	"/>
	<path clip-path="url(#SVGID_2_)" fill="#6D6D6C" d="M271.101,84.353l-0.24-2.683c-0.034-0.422-0.067-0.878-0.067-1.347h-0.024
		c-0.171,0.469-0.398,0.958-0.615,1.381l-1.37,2.671h-0.707l-1.382-2.671c-0.216-0.423-0.434-0.901-0.616-1.37h-0.022
		c0,0.48-0.035,0.926-0.069,1.336l-0.227,2.683h-1.702l0.628-7.281h1.438l1.587,3.059c0.217,0.422,0.537,1.072,0.73,1.553h0.024
		c0.182-0.48,0.444-1.051,0.694-1.553l1.575-3.059h1.45l0.65,7.281H271.101z"/>
	<polygon clip-path="url(#SVGID_2_)" fill="#6D6D6C" points="276.201,84.353 276.201,77.071 280.446,77.071 280.446,78.521 
		277.971,78.521 277.971,79.971 279.99,79.971 279.99,81.442 277.971,81.442 277.971,82.902 280.767,82.902 280.767,84.353 	"/>
	<path clip-path="url(#SVGID_2_)" fill="#6D6D6C" d="M289.852,84.433l-2.831-3.104c-0.456-0.502-0.971-1.119-1.358-1.599
		l-0.022,0.013c0.022,0.513,0.034,1.072,0.034,1.529v3.081h-1.769v-7.281h1.427l2.465,2.717c0.342,0.375,0.855,0.97,1.187,1.392
		l0.023-0.011c-0.023-0.434-0.034-0.902-0.034-1.358v-2.739h1.769v7.361H289.852z"/>
	<polygon clip-path="url(#SVGID_2_)" fill="#6D6D6C" points="297.727,78.485 297.727,84.353 295.969,84.353 295.969,78.475 
		293.766,78.475 293.766,77.071 299.917,77.071 299.917,78.485 	"/>
</g>
</svg>
